<svg width="16" height="17" viewBox="0 0 16 17" fill="none" xmlns="http://www.w3.org/2000/svg">
<path fill-rule="evenodd" clip-rule="evenodd" d="M6.85761 0.659987C7.56481 0.251684 8.43612 0.251684 9.14333 0.659987L13.7858 3.34033C14.493 3.74863 14.9287 4.50321 14.9287 5.31982V10.6805C14.9287 11.4971 14.493 12.2517 13.7858 12.66L9.14333 15.3403C8.43612 15.7486 7.56481 15.7486 6.85761 15.3403L2.21512 12.66C1.50792 12.2517 1.07227 11.4971 1.07227 10.6805V5.31982C1.07227 4.50321 1.50792 3.74863 2.21512 3.34033L6.85761 0.659987Z" fill="#17B38A"/>
<path fill-rule="evenodd" clip-rule="evenodd" d="M4.90234 10.0968L7.86354 13.0579L10.8435 10.0779L9.85594 9.0903L7.87524 11.0711L6.89024 10.0862L8.87094 8.1054L7.88244 7.1167L4.90234 10.0968Z" fill="white"/>
<path fill-rule="evenodd" clip-rule="evenodd" d="M7.89751 3.13013L3.9248 7.10283L3.9382 9.07063L7.8796 5.12933L11.8366 9.08633L11.8436 7.07623L7.89751 3.13013Z" fill="white"/>
<path d="M13.529 10.0742C13.2019 9.88536 12.7989 9.88536 12.4718 10.0742L10.7309 11.0793C10.4038 11.2682 10.2023 11.6172 10.2023 11.9948V14.0051C10.2023 14.3828 10.4038 14.7318 10.7309 14.9206L12.4718 15.9257C12.7989 16.1146 13.2019 16.1146 13.529 15.9257L15.2699 14.9206C15.597 14.7318 15.7985 14.3828 15.7985 14.0051V11.9948C15.7985 11.6172 15.597 11.2682 15.2699 11.0793L13.529 10.0742Z" fill="#38A1DB" stroke="white" stroke-width="0.4"/>
<path fill-rule="evenodd" clip-rule="evenodd" d="M11.8379 13.7862L12.9483 14.8967L14.0658 13.7792L13.6955 13.4088L12.9527 14.1516L12.5834 13.7823L13.3261 13.0395L12.9554 12.6687L11.8379 13.7862Z" fill="white"/>
<path fill-rule="evenodd" clip-rule="evenodd" d="M12.9614 11.1738L11.4717 12.6636L11.4767 13.4015L12.9547 11.9235L14.4386 13.4074L14.4412 12.6536L12.9614 11.1738Z" fill="white"/>
</svg>
