<svg width="36" height="20" viewBox="0 0 36 20" fill="none" xmlns="http://www.w3.org/2000/svg">
<g clip-path="url(#clip0_3173_2348)">
<rect width="36" height="20" rx="9.5" fill="#F7931A" fill-opacity="0.1"/>
<path d="M11.6798 10.5719H22.7118L19.8947 13.2839C19.8226 13.356 19.8226 13.4729 19.8947 13.5451L20.4606 14.111C20.5327 14.1831 20.6496 14.1831 20.7218 14.111L24.2681 10.6969C24.2722 10.6935 24.2762 10.6899 24.2801 10.6861L24.299 10.6671L24.8459 10.1406C24.8845 10.102 24.9023 10.0506 24.8995 9.99999C24.9024 9.94933 24.8846 9.89773 24.846 9.85905L24.2801 9.31362C24.2764 9.31 24.2726 9.30666 24.2688 9.3034L20.7218 5.88877C20.6496 5.81663 20.5327 5.81663 20.4606 5.88877L19.8947 6.45465C19.8226 6.52676 19.8226 6.64368 19.8947 6.71583L22.6854 9.40237H11.6798C11.5778 9.40237 11.4951 9.48505 11.4951 9.58705V10.3873C11.4951 10.4893 11.5778 10.572 11.6798 10.572L11.6798 10.5719Z" fill="#F7931A"/>
</g>
<defs>
<clipPath id="clip0_3173_2348">
<rect width="36" height="20" fill="white"/>
</clipPath>
</defs>
</svg>
